<?xml version="1.0" encoding="UTF-8"?>
<svg id="Camada_2" data-name="Camada 2" xmlns="http://www.w3.org/2000/svg" viewBox="0 0 797.82 797.82">
  <defs>
    <style>
      .cls-1 {
        fill: none;
        stroke: #e0e0e0;
        stroke-miterlimit: 10;
        stroke-width: 5.67px;
      }
    </style>
  </defs>
  <path class="cls-1" d="M281.83,462.62h234.17c61.43,0,111.23,49.14,111.23,109.77h0c0,60.62-49.8,109.77-111.23,109.77h-234.17c-61.43,0-111.23-49.14-111.23-109.77h0c0-60.62,49.8-109.77,111.23-109.77Z"/>
  <g>
    <circle class="cls-1" cx="302.32" cy="573.85" r="58.54"/>
    <circle class="cls-1" cx="498.43" cy="573.85" r="58.54"/>
  </g>
  <circle class="cls-1" cx="458.61" cy="374.65" r="38.05"/>
  <circle class="cls-1" cx="339.21" cy="165.39" r="11.71"/>
  <circle class="cls-1" cx="458.61" cy="165.39" r="11.71"/>
  <path class="cls-1" d="M213.7,137.58c-13.83,29.5-21.75,62.76-22.09,97.97-1.2,123.83,92.23,225.48,207.31,225.48,114.5,0,207.32-99.89,207.32-223.1,0-36.19-8.01-70.37-22.22-100.6-4.34-9.22-13.15-15.01-22.75-15.01H236.85c-9.77,0-18.75,5.87-23.15,15.26Z"/>
  <circle class="cls-1" cx="339.21" cy="374.65" r="38.05"/>
  <g>
    <circle class="cls-1" cx="527.71" cy="248.62" r="38.05"/>
    <circle class="cls-1" cx="270.11" cy="248.62" r="38.05"/>
    <circle class="cls-1" cx="398.91" cy="248.62" r="38.05"/>
  </g>
</svg>